<?xml version="1.0" standalone="no"?><!DOCTYPE svg PUBLIC "-//W3C//DTD SVG 1.1//EN" "http://www.w3.org/Graphics/SVG/1.1/DTD/svg11.dtd"><svg t="1605101696848" class="icon" viewBox="0 0 1024 1024" version="1.1" xmlns="http://www.w3.org/2000/svg" p-id="14953" xmlns:xlink="http://www.w3.org/1999/xlink" width="200" height="200"><defs><style type="text/css"></style></defs><path d="M511.98 962.161c-247.835 0-448.747-200.912-448.747-448.747S264.146 64.668 511.98 64.668 960.727 265.58 960.727 513.414 759.815 962.161 511.98 962.161z m0-815.903c-202.776 0-367.156 164.38-367.156 367.156S309.204 880.57 511.98 880.57s367.156-164.38 367.156-367.156S714.757 146.258 511.98 146.258z m183.954 583.909l-10.574 6.348-30.596 19.121-18.031 13.524c-13.405 6.56-27.402 11.745-41.884 16.163v-18.211l-5.103-42.072s-2.546-24.22-6.372-30.596c-3.827-6.372-12.749-15.298-21.674-19.125-8.922-3.823-15.294-3.823-20.393-10.199-5.099-6.372-8.926-17.844-15.302-28.043-6.372-10.199-14.021-20.398-14.021-25.501V554.21l6.376-48.444 14.021-10.199 16.571-19.121 11.476-3.827 39.522 7.649h28.047l11.472 24.22 26.77 21.674 16.575 26.77 21.674 7.649h24.22l16.575 20.398 10.199 21.674 3.823 15.298v25.497l-2.619 15.066c-16.212 27.264-36.712 51.231-60.752 71.653z m-98.541-439.853l-28.043 15.302-10.199 29.319-16.575 15.298H487.76l-25.501 10.199-1.273 20.398-10.199 16.575-2.55 17.848 5.099 15.294 6.376 15.302s15.294 17.844 0 30.596c0 0-19.125 0-22.947-6.376-3.827-6.376-31.873-24.22-36.973-29.324-5.099-5.095-21.67-10.199-21.67-10.199l-20.402-7.649-19.121-1.273 1.277-26.77-1.277-22.951-7.649-16.571-21.67-16.575-1.277-17.848 2.644-9.909c51.634-51.361 122.753-83.153 201.332-83.153 44.332 0 85.784 10.962 123.222 28.993l-0.836 6.703-36.972 26.771z" p-id="14954"></path></svg>